<svg width="21" height="18" viewBox="0 0 21 18" fill="none" xmlns="http://www.w3.org/2000/svg">
<path d="M5.88004 0.570152C6.05942 0.472306 6.25004 0.622833 6.25004 0.827166V14.383C6.25004 14.6062 6.09762 14.795 5.90024 14.8993C5.89347 14.9029 5.88673 14.9065 5.88004 14.9102L3.53004 16.2502C1.89004 17.1902 0.540039 16.4102 0.540039 14.5102V4.78015C0.540039 4.15015 0.990039 3.37015 1.55004 3.05015L5.88004 0.570152Z" fill="#1A5477"/>
<path d="M12.9719 3.10242C13.1423 3.18678 13.25 3.36041 13.25 3.55049V16.7036C13.25 17.0721 12.865 17.314 12.533 17.1541L8.28302 15.1065C8.11002 15.0231 8.00004 14.8481 8.00004 14.656V1.44573C8.00004 1.07487 8.3896 0.833078 8.72194 0.997663L12.9719 3.10242Z" fill="#1A5477"/>
<path d="M20.25 3.49015V13.2202C20.25 13.8502 19.8 14.6302 19.24 14.9502L15.7487 16.9511C15.4153 17.1421 15 16.9015 15 16.5173V3.33047C15 3.15096 15.0963 2.98522 15.2522 2.89623L17.26 1.75015C18.9 0.810152 20.25 1.59015 20.25 3.49015Z" fill="#1A5477"/>
</svg>
