<svg width="24" height="24" viewBox="0 0 24 24" fill="none" xmlns="http://www.w3.org/2000/svg">
<path d="M4.33228 6.5215C4 6.94338 4 7.24751 4 8.20088V16.1809C4 17.2054 4 17.7177 4.23961 18.1034C4.47921 18.489 4.89813 18.651 5.73595 18.975L6.72164 19.3561C7.2555 19.5627 8.43423 19.8846 8.77896 19.9869C9.00385 20.0537 9.21081 19.8567 9.21081 19.5972V7.42773C9.21081 7.21626 9.07091 7.0378 8.88715 6.98581C8.5907 6.90193 7.4664 6.60097 6.978 6.41211C5.79499 5.95464 5.20349 5.93708 4.75342 6.16936C4.59362 6.25182 4.45025 6.37171 4.33228 6.5215Z" fill="#71AD67"/>
<path d="M12.9177 4.72681L11.3847 5.80645C10.8909 6.12608 10.5291 6.36032 10.2201 6.52732C10.0737 6.60647 9.97686 6.74965 9.97686 6.90763L10.0518 19.1667C10.0518 19.4742 10.393 19.6661 10.6704 19.5004C10.9681 19.3226 11.4771 18.9058 11.8901 18.6384L13.2549 17.7549C13.7486 17.4354 14.1105 17.2011 14.4195 17.0341C14.566 16.955 14.6628 16.8118 14.6628 16.6538L14.5878 4.39471C14.5878 4.08727 14.2466 3.89532 13.9692 4.06099C13.6715 4.23881 13.3306 4.45951 12.9177 4.72681Z" fill="#71AD67"/>
<path d="M18.6611 5.15186L17.3283 4.69336C16.7944 4.4998 16.3401 4.33077 15.9954 4.23487C15.7705 4.17231 15.4317 4.1703 15.4317 4.41364L15.4192 16.536C15.4192 16.7342 15.4714 16.8186 15.7429 16.9503C15.9955 17.0729 16.3959 17.3543 16.8843 17.5314C18.0673 17.9602 19.1089 17.9897 19.1089 17.9897C19.1089 17.9897 19.55 17.9897 19.7959 17.7549C20.0534 17.509 19.9941 16.9581 19.9941 15.6019V7.8711C19.9941 6.9106 19.9941 6.43035 19.7545 6.0688C19.5149 5.70723 19.4989 5.4556 18.6611 5.15186Z" fill="#71AD67"/>
</svg>
