<svg width="25" height="24" viewBox="0 0 25 24" fill="none" xmlns="http://www.w3.org/2000/svg">
<path d="M9.58333 7.29224V19.8339M14.9167 4V16.6671M4.25 9.16581C4.25 7.83256 4.25 7.16593 4.59901 6.77713C4.72292 6.63908 4.87353 6.52859 5.04137 6.45259C5.51412 6.23851 6.13541 6.44932 7.37801 6.87093C8.32668 7.19281 8.80101 7.35375 9.28031 7.33708C9.45635 7.33097 9.63134 7.30712 9.80276 7.26587C10.2695 7.15357 10.6855 6.87127 11.5176 6.30665L12.7463 5.4728C13.8121 4.74956 14.345 4.38794 14.9568 4.30455C15.5685 4.22117 16.176 4.42732 17.3912 4.83964L18.4266 5.19092C19.3066 5.48952 19.7466 5.63882 19.9984 5.99425C20.25 6.34968 20.25 6.82179 20.25 7.76601V15.1205C20.25 16.4538 20.25 17.1204 19.901 17.5092C19.7771 17.6473 19.6264 17.7577 19.4586 17.8337C18.9859 18.0478 18.3646 17.837 17.122 17.4154C16.1733 17.0935 15.699 16.9326 15.2197 16.9492C15.0437 16.9554 14.8687 16.9792 14.6973 17.0204C14.2305 17.1327 13.8145 17.415 12.9824 17.9797L11.7537 18.8135C10.6879 19.5367 10.155 19.8984 9.54327 19.9817C8.93155 20.0651 8.32395 19.8589 7.10875 19.4466L6.0734 19.0954C5.19337 18.7968 4.75335 18.6475 4.50168 18.292C4.25 17.9366 4.25 17.4645 4.25 16.5203V9.16581Z" stroke="#686868" stroke-width="1.4"/>
</svg>
