<svg width="25" height="24" viewBox="0 0 25 24" fill="none" xmlns="http://www.w3.org/2000/svg">
<path d="M9.83333 7.29224V19.8339M15.1667 4V16.6671M4.5 9.16581C4.5 7.83256 4.5 7.16593 4.84901 6.77713C4.97292 6.63908 5.12353 6.52859 5.29137 6.45259C5.76412 6.23851 6.38541 6.44932 7.62801 6.87093C8.57668 7.19281 9.05101 7.35375 9.53031 7.33708C9.70635 7.33097 9.88134 7.30712 10.0528 7.26587C10.5195 7.15357 10.9355 6.87127 11.7676 6.30665L12.9963 5.4728C14.0621 4.74956 14.595 4.38794 15.2068 4.30455C15.8185 4.22117 16.426 4.42732 17.6412 4.83964L18.6766 5.19092C19.5566 5.48952 19.9966 5.63882 20.2484 5.99425C20.5 6.34968 20.5 6.82179 20.5 7.76601V15.1205C20.5 16.4538 20.5 17.1204 20.151 17.5092C20.0271 17.6473 19.8764 17.7577 19.7086 17.8337C19.2359 18.0478 18.6146 17.837 17.372 17.4154C16.4233 17.0935 15.949 16.9326 15.4697 16.9492C15.2937 16.9554 15.1187 16.9792 14.9473 17.0204C14.4805 17.1327 14.0645 17.415 13.2324 17.9797L12.0037 18.8135C10.9379 19.5367 10.405 19.8984 9.79327 19.9817C9.18155 20.0651 8.57395 19.8589 7.35875 19.4466L6.3234 19.0954C5.44337 18.7968 5.00335 18.6475 4.75168 18.292C4.5 17.9366 4.5 17.4645 4.5 16.5203V9.16581Z" stroke="#686868" stroke-width="1.4"/>
</svg>
