<svg width="21" height="20" viewBox="0 0 21 20" fill="none" xmlns="http://www.w3.org/2000/svg">
<path d="M19.5523 20H0.947674C0.566279 20 0.25 19.6837 0.25 19.3023C0.25 18.9209 0.566279 18.6047 0.947674 18.6047H19.5523C19.9337 18.6047 20.25 18.9209 20.25 19.3023C20.25 19.6837 19.9337 20 19.5523 20Z" fill="#595959"/>
<path d="M18.6221 20H1.87791C1.49651 20 1.18023 19.6837 1.18023 19.3023V4.4186C1.18023 1.6093 2.78954 0 5.59884 0H14.9012C17.7105 0 19.3198 1.6093 19.3198 4.4186V19.3023C19.3198 19.6837 19.0035 20 18.6221 20ZM2.57558 18.6047H17.9244V4.4186C17.9244 2.35349 16.9663 1.39535 14.9012 1.39535H5.59884C3.53372 1.39535 2.57558 2.35349 2.57558 4.4186V18.6047Z" fill="#595959"/>
<path d="M8.38953 14.8837H5.59884C5.21744 14.8837 4.90116 14.5674 4.90116 14.186C4.90116 13.8047 5.21744 13.4884 5.59884 13.4884H8.38953C8.77093 13.4884 9.08721 13.8047 9.08721 14.186C9.08721 14.5674 8.77093 14.8837 8.38953 14.8837Z" fill="#595959"/>
<path d="M14.9012 14.8837H12.1105C11.7291 14.8837 11.4128 14.5674 11.4128 14.186C11.4128 13.8047 11.7291 13.4884 12.1105 13.4884H14.9012C15.2826 13.4884 15.5988 13.8047 15.5988 14.186C15.5988 14.5674 15.2826 14.8837 14.9012 14.8837Z" fill="#595959"/>
<path d="M8.38953 10.6977H5.59884C5.21744 10.6977 4.90116 10.3814 4.90116 10C4.90116 9.6186 5.21744 9.30233 5.59884 9.30233H8.38953C8.77093 9.30233 9.08721 9.6186 9.08721 10C9.08721 10.3814 8.77093 10.6977 8.38953 10.6977Z" fill="#595959"/>
<path d="M14.9012 10.6977H12.1105C11.7291 10.6977 11.4128 10.3814 11.4128 10C11.4128 9.6186 11.7291 9.30233 12.1105 9.30233H14.9012C15.2826 9.30233 15.5988 9.6186 15.5988 10C15.5988 10.3814 15.2826 10.6977 14.9012 10.6977Z" fill="#595959"/>
<path d="M8.38953 6.51163H5.59884C5.21744 6.51163 4.90116 6.19535 4.90116 5.81395C4.90116 5.43256 5.21744 5.11628 5.59884 5.11628H8.38953C8.77093 5.11628 9.08721 5.43256 9.08721 5.81395C9.08721 6.19535 8.77093 6.51163 8.38953 6.51163Z" fill="#595959"/>
<path d="M14.9012 6.51163H12.1105C11.7291 6.51163 11.4128 6.19535 11.4128 5.81395C11.4128 5.43256 11.7291 5.11628 12.1105 5.11628H14.9012C15.2826 5.11628 15.5988 5.43256 15.5988 5.81395C15.5988 6.19535 15.2826 6.51163 14.9012 6.51163Z" fill="#595959"/>
</svg>
