<svg width="22" height="21" viewBox="0 0 22 21" fill="none" xmlns="http://www.w3.org/2000/svg">
<path d="M21.25 19.25H1.25C0.84 19.25 0.5 19.59 0.5 20C0.5 20.41 0.84 20.75 1.25 20.75H21.25C21.66 20.75 22 20.41 22 20C22 19.59 21.66 19.25 21.25 19.25Z" fill="#1A5477"/>
<path d="M16.25 0H6.25C3.25 0 2.25 1.79 2.25 4V20H20.25V4C20.25 1.79 19.25 0 16.25 0ZM9.25 15.25H6.25C5.84 15.25 5.5 14.91 5.5 14.5C5.5 14.09 5.84 13.75 6.25 13.75H9.25C9.66 13.75 10 14.09 10 14.5C10 14.91 9.66 15.25 9.25 15.25ZM9.25 10.75H6.25C5.84 10.75 5.5 10.41 5.5 10C5.5 9.59 5.84 9.25 6.25 9.25H9.25C9.66 9.25 10 9.59 10 10C10 10.41 9.66 10.75 9.25 10.75ZM9.25 6.25H6.25C5.84 6.25 5.5 5.91 5.5 5.5C5.5 5.09 5.84 4.75 6.25 4.75H9.25C9.66 4.75 10 5.09 10 5.5C10 5.91 9.66 6.25 9.25 6.25ZM16.25 15.25H13.25C12.84 15.25 12.5 14.91 12.5 14.5C12.5 14.09 12.84 13.75 13.25 13.75H16.25C16.66 13.75 17 14.09 17 14.5C17 14.91 16.66 15.25 16.25 15.25ZM16.25 10.75H13.25C12.84 10.75 12.5 10.41 12.5 10C12.5 9.59 12.84 9.25 13.25 9.25H16.25C16.66 9.25 17 9.59 17 10C17 10.41 16.66 10.75 16.25 10.75ZM16.25 6.25H13.25C12.84 6.25 12.5 5.91 12.5 5.5C12.5 5.09 12.84 4.75 13.25 4.75H16.25C16.66 4.75 17 5.09 17 5.5C17 5.91 16.66 6.25 16.25 6.25Z" fill="#1A5477"/>
</svg>
