<svg width="16" height="16" viewBox="0 0 16 16" fill="none" xmlns="http://www.w3.org/2000/svg">
<path fill-rule="evenodd" clip-rule="evenodd" d="M0 8C0 3.58172 3.58172 0 8 0C12.4183 0 16 3.58172 16 8C16 12.4183 12.4183 16 8 16C3.58172 16 0 12.4183 0 8ZM8 3.72093C8.30824 3.72093 8.55814 3.97082 8.55814 4.27907V8.74419C8.55814 9.05243 8.30824 9.30233 8 9.30233C7.69176 9.30233 7.44186 9.05243 7.44186 8.74419V4.27907C7.44186 3.97082 7.69176 3.72093 8 3.72093ZM8.42233 12.0936C8.62854 11.8645 8.60993 11.5116 8.3808 11.3054C8.15166 11.0992 7.79877 11.1177 7.59256 11.3468L7.58512 11.3551C7.3789 11.5842 7.39751 11.9371 7.62664 12.1433C7.85578 12.3495 8.20867 12.3309 8.41488 12.1019L8.42233 12.0936Z" fill="#BEBEBE"/>
</svg>
