<svg width="12" height="12" viewBox="0 0 12 12" fill="none" xmlns="http://www.w3.org/2000/svg">
<path fill-rule="evenodd" clip-rule="evenodd" d="M10.9387 6.408C10.7949 6.9093 10.4085 7.2957 9.63576 8.06845L8.72094 8.98325C7.37644 10.3278 6.7042 11 5.86885 11C5.0335 11 4.36125 10.3278 3.01675 8.98325C1.67225 7.63875 0.999999 6.9665 0.999999 6.13115C0.999999 5.2958 1.67225 4.62356 3.01675 3.27906L3.93155 2.36424C4.7043 1.59148 5.0907 1.20509 5.592 1.06132C6.0933 0.917546 6.62575 1.04042 7.69062 1.28616L8.30471 1.42787C9.2006 1.63461 9.64854 1.73799 9.95528 2.04472C10.262 2.35146 10.3654 2.79941 10.5721 3.69529L10.7138 4.30938C10.9596 5.37425 11.0825 5.9067 10.9387 6.408ZM6.9383 3.63549C6.5445 4.02928 6.5445 4.66775 6.9383 5.06155C7.33209 5.45535 7.97056 5.45535 8.36435 5.06155C8.75814 4.66775 8.75814 4.02928 8.36435 3.63549C7.97056 3.2417 7.33209 3.2417 6.9383 3.63549Z" fill="#DE4C4C"/>
</svg>
