<svg width="20" height="22" viewBox="0 0 20 22" fill="none" xmlns="http://www.w3.org/2000/svg">
<path d="M15.0979 21.0187C14.0447 21.0187 12.9357 20.767 11.7894 20.2824C10.671 19.8071 9.54334 19.1547 8.44362 18.3626C7.35322 17.5611 6.30009 16.6664 5.30289 15.6878C4.315 14.6906 3.42032 13.6375 2.62815 12.5564C1.82665 11.438 1.1836 10.3197 0.726934 9.23861C0.242311 8.08297 0 6.96461 0 5.91149C0 5.18455 0.130475 4.4949 0.382106 3.85184C0.643057 3.19014 1.06244 2.57505 1.63094 2.04383C2.34856 1.33553 3.16869 0.981384 4.04473 0.981384C4.4082 0.981384 4.78099 1.06526 5.09786 1.21438C5.46132 1.38213 5.76887 1.63376 5.99254 1.96927L8.15471 5.0168C8.35042 5.28707 8.49953 5.54802 8.60205 5.80897C8.72321 6.08856 8.78844 6.36815 8.78844 6.63842C8.78844 6.99257 8.68593 7.3374 8.49021 7.66358C8.31893 7.95471 8.10886 8.22121 7.8658 8.45576L7.23206 9.11745C7.24138 9.14541 7.2507 9.16405 7.26002 9.18269C7.37185 9.3784 7.59553 9.71391 8.02423 10.2172C8.4809 10.7391 8.9096 11.2144 9.3383 11.6524C9.88816 12.1929 10.3448 12.6216 10.7735 12.9758C11.3048 13.4231 11.6496 13.6468 11.8546 13.7493L11.836 13.7959L12.5163 13.1249C12.8052 12.836 13.0848 12.6216 13.3551 12.4819C13.8677 12.165 14.52 12.1091 15.1724 12.3793C15.4147 12.4819 15.6757 12.6216 15.9553 12.8174L19.0494 15.0168C19.3942 15.2498 19.6459 15.548 19.795 15.9022C19.9348 16.2563 20 16.5825 20 16.9087C20 17.356 19.8975 17.8034 19.7018 18.2228C19.5061 18.6421 19.2637 19.0056 18.9562 19.3411C18.425 19.9283 17.8472 20.3476 17.1761 20.6179C16.5331 20.8789 15.8341 21.0187 15.0979 21.0187ZM4.04473 2.37933C3.53215 2.37933 3.05685 2.60301 2.60019 3.05035C2.17148 3.4511 1.87325 3.88912 1.68686 4.36442C1.49115 4.84905 1.39795 5.36163 1.39795 5.91149C1.39795 6.77822 1.60298 7.7195 2.01305 8.68875C2.43243 9.67663 3.01957 10.7018 3.76514 11.727C4.51072 12.7521 5.35881 13.7493 6.29077 14.6906C7.22274 15.6133 8.22926 16.4707 9.26375 17.2256C10.2703 17.9618 11.3048 18.5583 12.3299 18.987C13.9236 19.6673 15.4147 19.8257 16.6449 19.3132C17.1202 19.1175 17.5396 18.8192 17.9217 18.3905C18.1361 18.1575 18.3038 17.9059 18.4436 17.6077C18.5555 17.3747 18.6114 17.1324 18.6114 16.8901C18.6114 16.7409 18.5834 16.5918 18.5089 16.4241C18.4493 16.3086 18.359 16.2119 18.2479 16.1445L15.1538 13.945C14.9674 13.8146 14.7996 13.7214 14.6412 13.6561C14.4362 13.5723 14.3523 13.4884 14.0354 13.6841C13.849 13.7773 13.6813 13.9171 13.4949 14.1035L12.7866 14.8024C12.4231 15.1566 11.8639 15.2405 11.4352 15.082L11.1836 14.9702C10.8015 14.7652 10.3541 14.4483 9.86021 14.0289C9.41286 13.6468 8.92824 13.1995 8.3411 12.6216C7.88444 12.1557 7.42777 11.6617 6.95247 11.1119C6.51445 10.5993 6.19758 10.1613 6.00186 9.79779L5.89003 9.5182C5.83411 9.30384 5.81547 9.18269 5.81547 9.05221C5.81547 8.71671 5.93663 8.41848 6.16962 8.18548L6.86859 7.45855C7.05499 7.27216 7.19478 7.09508 7.28798 6.93665C7.36253 6.81549 7.39049 6.71298 7.39049 6.61978C7.39049 6.54522 7.36254 6.43339 7.31594 6.32155C7.2507 6.17244 7.14818 6.00468 7.01771 5.82761L4.85555 2.77076C4.7683 2.64554 4.64928 2.54582 4.51072 2.48185C4.3616 2.41661 4.20317 2.37933 4.04473 2.37933ZM11.836 13.8052L11.6869 14.439L11.9385 13.7866C11.8919 13.7773 11.8546 13.7866 11.836 13.8052Z" fill="#262626"/>
</svg>
