<svg width="25" height="24" viewBox="0 0 25 24" fill="none" xmlns="http://www.w3.org/2000/svg">
<path d="M15.3271 3.37891C16.1153 3.2106 16.8267 3.3499 17.2549 3.46094L17.5811 3.54981L17.6807 3.58399C17.7127 3.59754 17.7437 3.61361 17.7734 3.63184C19.2177 4.51636 20.0109 5.55821 20.2236 6.70313C20.4333 7.83197 20.0482 8.89904 19.4854 9.78028C18.9204 10.6648 18.1337 11.4325 17.4043 12.0068C16.7132 12.551 16.0093 12.969 15.5244 13.1436V13.1445H15.5234C15.5228 13.1448 15.521 13.1459 15.5195 13.1465C15.5162 13.1479 15.5112 13.1497 15.5049 13.1523C15.4918 13.1579 15.4722 13.1661 15.4473 13.1768C15.397 13.1982 15.3236 13.2297 15.2324 13.2686C15.05 13.3462 14.795 13.4546 14.5049 13.5781C14.311 13.6607 14.1009 13.7496 13.8867 13.8408L15.1846 14.6377C15.3831 14.5332 15.6136 14.46 15.8604 14.4141C16.3903 14.3154 17.0766 14.3237 17.8955 14.4844C18.2366 14.5513 18.8796 14.785 19.3799 14.9678C19.649 15.0661 19.8961 15.1576 20.0889 15.2246C20.1854 15.2581 20.2599 15.2825 20.3115 15.2979C20.3238 15.3015 20.3332 15.3039 20.3398 15.3057C20.5674 15.3349 20.7683 15.4748 20.874 15.6826C20.9933 15.9173 20.9713 16.1993 20.8164 16.4121L20.3271 17.083L20.2324 17.1885C19.9918 17.4081 19.6221 17.4357 19.3486 17.2363C19.071 17.0338 18.9872 16.666 19.1318 16.3672C19.0554 16.3393 18.9773 16.3117 18.8994 16.2832C18.3384 16.0782 17.83 15.8975 17.626 15.8574C16.933 15.7214 16.4303 15.7315 16.1162 15.79C15.9924 15.8131 15.911 15.8434 15.8623 15.8652C15.7528 16.1986 15.7148 16.6729 16.0088 17.1436C16.3028 17.6141 17.0095 18.2145 18.6484 18.6445C18.7703 18.4387 18.9935 18.2998 19.25 18.2998C19.6365 18.2999 19.9502 18.6135 19.9502 19V19.5C19.9502 19.7094 19.8561 19.9081 19.6943 20.041C19.5326 20.1739 19.3197 20.2271 19.1143 20.1865C16.7704 19.7235 15.4513 18.8935 14.8213 17.8848C14.3659 17.1555 14.3261 16.4236 14.4277 15.8477C13.7394 15.4497 12.8641 14.8705 12.0205 14.3379L11.999 14.3252V14.3242C11.9969 14.3229 11.9943 14.3217 11.9922 14.3203C11.28 13.8712 10.5697 13.4426 9.93652 13.126C6.77593 11.5455 5.47301 9.39547 5.38379 7.43946C5.29893 5.57541 6.37033 3.86082 7.87598 3.54395C10.4116 3.01043 11.9419 4.37227 12.7139 5.29883C13.5173 4.12839 14.4308 3.57044 15.3271 3.37891ZM9.89648 14.4883C10.2138 14.4157 10.5494 14.573 10.6895 14.8809C10.8495 15.2328 10.6937 15.6486 10.3418 15.8086L8.66992 16.5684C8.8998 16.8916 9.03604 17.2862 9.03613 17.7139C9.03613 18.8142 8.13992 19.7002 7.04297 19.7002C5.946 19.7002 5.0498 18.8142 5.0498 17.7139C5.05003 16.6137 5.94614 15.7285 7.04297 15.7285C7.07076 15.7285 7.0984 15.7303 7.12598 15.7314L9.76172 14.5342L9.89648 14.4883ZM17.124 4.87598C16.7286 4.76922 16.2205 4.61989 15.6201 4.74805C15.0173 4.87678 14.1921 5.32916 13.418 6.8584C13.3161 7.0596 13.1232 7.19981 12.9004 7.23438C12.6777 7.26887 12.4519 7.19386 12.2939 7.03321C11.5988 6.32544 10.7459 4.36983 8.16406 4.91309C7.53274 5.04595 6.71895 5.96692 6.7832 7.37598C6.84329 8.69324 7.72382 10.4545 10.5625 11.874C11.1607 12.1732 11.8031 12.5537 12.4268 12.9414C12.923 12.7301 13.4858 12.4903 13.9561 12.29C14.2461 12.1665 14.5012 12.0582 14.6836 11.9805C14.7748 11.9416 14.8482 11.9101 14.8984 11.8887C14.9235 11.878 14.9429 11.8698 14.9561 11.8643C14.9624 11.8616 14.9674 11.8598 14.9707 11.8584C14.9723 11.8577 14.9738 11.8568 14.9746 11.8564H14.9756C14.9929 11.8491 15.0114 11.8419 15.0293 11.8359C15.2936 11.7478 15.8754 11.4281 16.5381 10.9063C17.1886 10.394 17.8499 9.73829 18.3047 9.02637C18.7614 8.31141 18.9683 7.60937 18.8477 6.95899C18.7324 6.33863 18.2898 5.61017 17.124 4.87598Z" stroke="#1A5477" stroke-width="1.4" stroke-linecap="round" stroke-linejoin="round"/>
<path d="M8.59994 4.81652C9.79384 4.55497 10.9433 5.09433 11.7367 5.61632C12.1107 5.86241 12.4391 6.12844 12.7015 6.35949C13.4262 5.56235 14.4734 5.16483 15.346 4.96788C15.9246 4.83731 16.4792 4.78179 16.9183 4.76574C17.1383 4.75771 17.3347 4.75944 17.4954 4.76769C17.5668 4.77135 17.6435 4.77651 17.7181 4.78527L17.93 4.82335L18.0316 4.85949C18.0643 4.87386 18.0961 4.89101 18.1263 4.91027C18.5961 5.2098 18.9543 5.56708 19.1693 5.99132C19.3888 6.42456 19.433 6.87667 19.3538 7.30968C19.2039 8.13025 18.6163 8.86861 18.012 9.44933C17.3868 10.0502 16.6384 10.5811 15.9984 10.9786C15.4075 11.3456 14.8575 11.6273 14.5472 11.7452L14.5482 11.7462L12.8392 12.504C12.6217 12.6004 12.3701 12.5799 12.1712 12.4493C11.7505 12.1732 11.3393 11.9158 10.9779 11.7276C9.0456 10.7218 7.95975 9.24597 7.54916 7.92101C7.34641 7.26657 7.29863 6.61387 7.4349 6.06456C7.5707 5.51765 7.93196 4.963 8.59994 4.81652Z" fill="#1A5477" stroke="#1A5477" stroke-width="1.4" stroke-linecap="round" stroke-linejoin="round"/>
</svg>
