<svg width="24" height="24" viewBox="0 0 24 24" fill="none" xmlns="http://www.w3.org/2000/svg">
<path d="M14.5004 15.5C14.6324 15.1741 15.4988 14.874 17.0111 15.1709C17.5562 15.2779 19.3122 16 19.5004 16L19.0111 16.6709M14.5004 15.5C14.124 16.4294 13.9834 18.6078 18.4998 19.5V19M14.5004 15.5C13.8111 15.1596 12.7369 14.4355 11.6158 13.7285M14.5004 15.5L11.6158 13.7285M6.5 16.445C6.43258 16.4342 6.36341 16.4286 6.29293 16.4286C5.57886 16.4286 5 17.0042 5 17.7143C5 18.4244 5.57886 19 6.29293 19C7.00699 19 7.58586 18.4244 7.58586 17.7143C7.58586 17.0743 7.11563 16.5435 6.5 16.445ZM6.5 16.445L9.30194 15.1709M11.6158 13.7285C10.9002 13.2773 10.1655 12.833 9.49953 12.5C3.50022 9.5 5.13272 4.67831 7.2698 4.22856C10.3359 3.5833 11.5537 6.04388 12.0432 6.54231C13.7369 3.19648 15.9595 4.05012 16.6583 4.22845C22.0003 7.5 16.0004 12 14.5004 12.5C14.5004 12.5 12.7423 13.2487 11.6158 13.7285Z" stroke="#71AD67" stroke-width="1.4" stroke-linecap="round" stroke-linejoin="round"/>
<path d="M11.7507 7.98376C12.7542 5.92024 15.0001 3.99991 16.5001 4.99981C21.0001 7.9836 14.0953 11.3498 13.2066 11.6581L11.4975 12.4158C11.0735 12.1375 10.6382 11.8635 10.2436 11.6581C6.68911 9.80789 4.5 6 7.00012 5C9.36747 4.05311 11.4607 7.67635 11.7507 7.98376Z" fill="#71AD67" stroke="#71AD67" stroke-width="1.4" stroke-linecap="round" stroke-linejoin="round"/>
</svg>
