<svg width="17" height="18" viewBox="0 0 17 18" fill="none" xmlns="http://www.w3.org/2000/svg">
<path d="M10.5004 9.5C12.0004 9 18.0003 4.5 12.6583 1.22845C11.9595 1.05012 9.73685 0.196482 8.0432 3.54231C7.55367 3.04388 6.33586 0.583301 3.2698 1.22856C1.13272 1.67831 -0.499779 6.5 5.49953 9.5C7.20884 10.3548 9.37117 11.9424 10.5004 12.5M10.5004 12.5C10.6324 12.1741 11.4988 11.874 13.0111 12.1709C13.5562 12.2779 15.3122 13 15.5004 13L15.0111 13.6709M10.5004 12.5C10.124 13.4294 9.98344 15.6078 14.4998 16.5V16M2.5 13.445C2.43258 13.4342 2.36341 13.4286 2.29293 13.4286C1.57886 13.4286 1 14.0042 1 14.7143C1 15.4244 1.57886 16 2.29293 16C3.00699 16 3.58586 15.4244 3.58586 14.7143C3.58586 14.0743 3.11563 13.5435 2.5 13.445ZM2.5 13.445L5.30194 12.1709" stroke="#686868" stroke-width="1.4" stroke-linecap="round" stroke-linejoin="round"/>
</svg>
