<?xml version="1.0" encoding="UTF-8"?>
<svg xmlns="http://www.w3.org/2000/svg" id="Layer_1" data-name="Layer 1" viewBox="0 0 24 24">
  <path d="m23.268,17.768l-2.955,2.955c-.195.195-.451.293-.707.293s-.512-.098-.707-.293c-.391-.391-.391-1.023,0-1.414l2.309-2.309h-3.707c-1.379,0-2.5,1.121-2.5,2.5v3.5c0,.553-.447,1-1,1s-1-.447-1-1v-3.5c0-2.481,2.019-4.5,4.5-4.5h3.707l-2.293-2.293c-.391-.391-.391-1.023,0-1.414s1.023-.391,1.414,0l2.939,2.939c.975.975.975,2.561,0,3.535ZM2,6C2,2.691,4.691,0,8,0s6,2.691,6,6-2.691,6-6,6-6-2.691-6-6Zm10.208,8.986c.108.3.067.633-.11.897-.718,1.07-1.098,2.32-1.098,3.616v3.5c0,.553-.447,1-1,1H1c-.553,0-1-.447-1-1,0-4.963,4.037-9,9-9,.866,0,1.725.123,2.551.367.305.09.549.32.657.619Z"/>
</svg>
