<?xml version="1.0" encoding="UTF-8"?>
<svg fill="#1a5478" xmlns="http://www.w3.org/2000/svg" id="Layer_1" data-name="Layer 1" viewBox="0 0 24 24">
  <path d="m23.957,12l-3.457,3.457v5.043h-5.043l-3.457,3.457-3.457-3.457H3.5v-5.043L.043,12l3.457-3.457V3.5h5.043L12,.043l3.457,3.457h4.502l-1.008,1h-3.908l-3.043-3.043-3.043,3.043h-4.457v4.457l-3.043,3.043,3.043,3.043v4.457h4.457l3.043,3.043,3.043-3.043h4.457v-4.457l3.043-3.043-2.018-2.018.71-.704,2.722,2.722Zm-11.907,2c-.109,0-.212-.043-.293-.124l-3.906-3.847-.701.713,3.902,3.844c.267.267.621.414.998.414h0c.377,0,.73-.147.994-.413l9.808-9.732-.705-.71-9.81,9.735c-.077.077-.179.12-.288.12Z"/>
</svg>
