<svg width="14" height="14" viewBox="0 0 14 14" fill="none" xmlns="http://www.w3.org/2000/svg">
<path d="M12.412 10.9483L11.4493 11.1661C11.2334 11.2164 11.0642 11.3728 11.0175 11.5794L10.8133 12.4004C10.7025 12.8472 10.1073 12.9868 9.79807 12.635L8.05349 10.7138C7.91346 10.5574 7.98931 10.3117 8.19936 10.2614C9.2321 10.0212 10.1598 9.46833 10.8425 8.68086C10.9533 8.55241 11.1517 8.53566 11.2743 8.65294L12.5696 9.89279C13.013 10.3172 12.8555 10.8478 12.412 10.9483Z" fill="#2C8EC9"/>
<path d="M1.58862 10.9483L2.55135 11.1661C2.76724 11.2164 2.93644 11.3728 2.98312 11.5794L3.18734 12.4004C3.2982 12.8472 3.89334 12.9868 4.20258 12.635L5.94716 10.7138C6.08719 10.5574 6.01134 10.3117 5.80129 10.2614C4.76854 10.0212 3.84082 9.46833 3.15816 8.68086C3.0473 8.55241 2.84892 8.53566 2.72639 8.65294L1.43109 9.89279C0.987647 10.3172 1.14518 10.8478 1.58862 10.9483Z" fill="#2C8EC9"/>
<path d="M7.01491 1.75C4.75688 1.75 2.93061 3.49807 2.93061 5.65943C2.93061 6.46924 3.1815 7.21203 3.61327 7.83196C4.24342 8.72554 5.24116 9.35664 6.40227 9.5186C6.60065 9.55211 6.80486 9.56886 7.01491 9.56886C7.22496 9.56886 7.42918 9.55211 7.62756 9.5186C8.78867 9.35664 9.7864 8.72554 10.4166 7.83196C10.8483 7.21203 11.0992 6.46924 11.0992 5.65943C11.0992 3.49807 9.27295 1.75 7.01491 1.75ZM8.80034 5.53656L8.31605 6.00011C8.23437 6.0783 8.18769 6.22909 8.21686 6.34079L8.3569 6.91603C8.46776 7.36841 8.21686 7.54713 7.79676 7.30698L7.21329 6.97747C7.10827 6.91603 6.93323 6.91603 6.8282 6.97747L6.24473 7.30698C5.82463 7.54154 5.57374 7.36841 5.6846 6.91603L5.82463 6.34079C5.84797 6.23468 5.80712 6.0783 5.72544 6.00011L5.22949 5.53656C4.94359 5.2629 5.03694 4.98924 5.4337 4.92781L6.05802 4.82728C6.16304 4.81053 6.28557 4.72117 6.33225 4.63181L6.6765 3.97279C6.86321 3.61536 7.16661 3.61536 7.35333 3.97279L7.69757 4.63181C7.74425 4.72117 7.86678 4.81053 7.97764 4.82728L8.60196 4.92781C8.99288 4.98924 9.08624 5.2629 8.80034 5.53656Z" fill="#2C8EC9"/>
</svg>
