<svg width="14" height="12" viewBox="0 0 14 12" fill="none" xmlns="http://www.w3.org/2000/svg">
<path d="M9.88889 10.9993V9.88824C9.88889 9.29887 9.65476 8.73364 9.23801 8.31689C8.82127 7.90014 8.25604 7.66602 7.66667 7.66602H3.22222C2.63285 7.66602 2.06762 7.90014 1.65087 8.31689C1.23413 8.73364 1 9.29887 1 9.88824V10.9993" stroke="#6E7178" stroke-linecap="round" stroke-linejoin="round"/>
<path d="M5.44488 5.44444C6.67218 5.44444 7.6671 4.44952 7.6671 3.22222C7.6671 1.99492 6.67218 1 5.44488 1C4.21758 1 3.22266 1.99492 3.22266 3.22222C3.22266 4.44952 4.21758 5.44444 5.44488 5.44444Z" stroke="#6E7178" stroke-linecap="round" stroke-linejoin="round"/>
<path d="M13.2223 11.0004V9.88926C13.222 9.39688 13.0581 8.91858 12.7564 8.52943C12.4548 8.14029 12.0324 7.86235 11.5557 7.73926" stroke="#6E7178" stroke-linecap="round" stroke-linejoin="round"/>
<path d="M9.33301 1.07227C9.81102 1.19466 10.2347 1.47266 10.5373 1.86244C10.8398 2.25222 11.004 2.73162 11.004 3.22504C11.004 3.71847 10.8398 4.19787 10.5373 4.58765C10.2347 4.97743 9.81102 5.25543 9.33301 5.37782" stroke="#6E7178" stroke-linecap="round" stroke-linejoin="round"/>
</svg>
