<svg width="12" height="13" viewBox="0 0 12 13" fill="none" xmlns="http://www.w3.org/2000/svg">
<path d="M10.8606 8.6682V4.28573C10.8604 4.0936 10.8096 3.9049 10.7135 3.73856C10.6173 3.57222 10.4791 3.43409 10.3127 3.33802L6.47809 1.14678C6.31153 1.05062 6.1226 1 5.93028 1C5.73796 1 5.54903 1.05062 5.38247 1.14678L1.54781 3.33802C1.38142 3.43409 1.24322 3.57222 1.14707 3.73856C1.05091 3.9049 1.0002 4.0936 1 4.28573V8.6682C1.0002 8.86033 1.05091 9.04903 1.14707 9.21537C1.24322 9.38171 1.38142 9.51984 1.54781 9.61591L5.38247 11.8071C5.54903 11.9033 5.73796 11.9539 5.93028 11.9539C6.1226 11.9539 6.31153 11.9033 6.47809 11.8071L10.3127 9.61591C10.4791 9.51984 10.6173 9.38171 10.7135 9.21537C10.8096 9.04903 10.8604 8.86033 10.8606 8.6682Z" stroke="#6E7178" stroke-linecap="round" stroke-linejoin="round"/>
<path d="M1.14746 3.7168L5.92983 6.48323L10.7122 3.7168" stroke="#6E7178" stroke-linecap="round" stroke-linejoin="round"/>
<path d="M5.93066 11.9995V6.47754" stroke="#6E7178" stroke-linecap="round" stroke-linejoin="round"/>
</svg>
